<svg width="228" height="56" viewBox="0 0 228 56" fill="none" xmlns="http://www.w3.org/2000/svg">
<path d="M63.3523 32.1761V53.4474H50.6818V32.1761C50.6818 28.5991 47.8378 25.7166 44.3466 25.7166C40.8384 25.7166 38.0113 28.6164 38.0113 32.1761V53.4474H25.3409V32.1761C25.3409 28.5991 22.4969 25.7166 19.0057 25.7166C15.5145 25.7166 12.6705 28.6164 12.6705 32.1761C12.6705 32.315 12.6705 32.454 12.6875 32.5929V53.4474H0.0170302V32.9402C0 32.6797 0 32.4366 0 32.1761C0 21.4797 8.51509 12.7975 19.0057 12.7975C23.8763 12.7975 28.3212 14.6555 31.6761 17.729C35.0311 14.6555 39.4759 12.7975 44.3466 12.7975C54.8542 12.7975 63.3523 21.4797 63.3523 32.1761ZM12.6705 32.1761C12.6705 32.315 12.6705 32.454 12.6875 32.5929L12.6705 32.1761ZM12.6705 32.1761C12.6705 32.315 12.6705 32.454 12.6875 32.5929L12.6705 32.1761ZM12.6705 32.1761C12.6705 32.315 12.6705 32.454 12.6875 32.5929L12.6705 32.1761ZM168.003 53.4474V15.4543H155.332V53.4474H168.003ZM92.4398 15.4543V36.6214C92.4398 40.1984 89.5957 43.0809 86.1046 43.0809C82.5964 43.0809 79.7693 40.1811 79.7693 36.6214V15.4543H67.0989V36.6214C67.0989 47.3178 75.614 56 86.1046 56C96.5952 56 105.11 47.3178 105.11 36.6214V15.4543H92.4398ZM184.914 53.3953V32.2282C184.914 28.6512 187.758 25.7687 191.249 25.7687C194.757 25.7687 197.584 28.6685 197.584 32.2282V53.3953H210.255V32.2282C210.255 21.5318 201.739 12.8496 191.249 12.8496C180.758 12.8496 172.243 21.5318 172.243 32.2282V53.3953H184.914ZM121.732 53.4474H138.489L152.454 15.4543H139.784L130.111 43.0288L120.437 15.4543H107.767L121.732 53.4474ZM161.667 0C158.176 0 155.332 2.88248 155.332 6.45954C155.332 10.0366 158.159 12.9191 161.667 12.9191C165.176 12.9191 168.003 10.0366 168.003 6.45954C168.003 2.88248 165.176 0 161.667 0ZM221.665 44.0012C218.174 44.0012 215.33 46.8837 215.33 50.4608C215.33 51.52 215.585 52.5271 216.028 53.4127H227.302C227.745 52.5271 228 51.52 228 50.4608C228 46.8837 225.173 44.0012 221.665 44.0012Z" fill="url(#paint0_linear)"/>
<defs>
<linearGradient id="paint0_linear" x1="0" y1="0" x2="107.346" y2="145.2" gradientUnits="userSpaceOnUse">
<stop stop-color="#54C5C3"/>
<stop offset="0.489583" stop-color="#512E87"/>
<stop offset="1" stop-color="#EF515F"/>
</linearGradient>
</defs>
</svg>
