<svg width="19" height="29" viewBox="0 0 19 29" fill="none" xmlns="http://www.w3.org/2000/svg">
<path d="M19 9.32129V11.3927C19 11.5999 19 11.807 19 11.9106C18.6833 22.9927 9.5 28.9999 9.5 28.9999C9.5 28.9999 0.316667 22.9927 0 11.9106C0 11.7034 0 11.4963 0 11.3927V9.32129H19Z" fill="#5BC3C1"/>
<path d="M19 9.32143C19 9.52857 19 9.63214 19 9.83929C18.6833 20.9214 9.5 26.9286 9.5 26.9286C9.5 26.9286 0.316667 20.9214 0 9.83929C0 9.63214 0 9.52857 0 9.32143C0 4.14286 4.22222 0 9.5 0C14.7778 0 19 4.14286 19 9.32143Z" fill="#32E1CC"/>
<path d="M9.50065 12.4286C11.2496 12.4286 12.6673 11.0375 12.6673 9.3215C12.6673 7.60547 11.2496 6.21436 9.50065 6.21436C7.75175 6.21436 6.33398 7.60547 6.33398 9.3215C6.33398 11.0375 7.75175 12.4286 9.50065 12.4286Z" fill="#B8FFF6"/>
<path d="M12.6673 9.3215C12.6673 9.73578 12.5618 10.0465 12.4562 10.3572C12.034 9.11436 10.8729 8.28578 9.50065 8.28578C8.12843 8.28578 6.96732 9.11436 6.5451 10.3572C6.43954 10.0465 6.33398 9.73578 6.33398 9.3215C6.33398 7.66436 7.70621 6.21436 9.50065 6.21436C11.1895 6.21436 12.6673 7.66436 12.6673 9.3215Z" fill="#5BC3C1"/>
</svg>
