<svg width="70" height="34" viewBox="0 0 70 34" fill="none" xmlns="http://www.w3.org/2000/svg">
<path d="M53.4882 16.2085V34H42.7906V16.2085C42.7906 13.2166 40.3893 10.8056 37.4417 10.8056C34.4797 10.8056 32.0929 13.2311 32.0929 16.2085V34H21.3953V16.2085C21.3953 13.2166 18.9941 10.8056 16.0465 10.8056C13.0989 10.8056 10.6976 13.2311 10.6976 16.2085C10.6976 16.3246 10.6976 16.4408 10.712 16.557V34H0.0143785V16.8475C0 16.6296 0 16.4263 0 16.2085C0 7.26186 7.18927 0 16.0465 0C20.1587 0 23.9115 1.55404 26.7441 4.12473C29.5767 1.55404 33.3295 0 37.4417 0C46.3133 0 53.4882 7.26186 53.4882 16.2085ZM10.6976 16.2085C10.6976 16.3246 10.6976 16.4408 10.712 16.557L10.6976 16.2085ZM10.6976 16.2085C10.6976 16.3246 10.6976 16.4408 10.712 16.557L10.6976 16.2085ZM10.6976 16.2085C10.6976 16.3246 10.6976 16.4408 10.712 16.557L10.6976 16.2085ZM64.6512 26.0991C61.7036 26.0991 59.3024 28.51 59.3024 31.5019C59.3024 32.3879 59.518 33.2302 59.8919 33.971H69.4105C69.7843 33.2302 70 32.3879 70 31.5019C70 28.51 67.6131 26.0991 64.6512 26.0991Z" fill="white"/>
</svg>
