<svg width="21" height="17" viewBox="0 0 21 17" fill="none" xmlns="http://www.w3.org/2000/svg">
<g clip-path="url(#clip0)">
<path d="M21 3.98839L11.9438 9.15377L10.6313 9.93839L9.31875 9.15377L0.065625 3.85762C0 3.98839 0 4.18454 0 4.38069V13.8615C0 15.5615 1.37812 16.9999 3.08437 16.9999H17.85C19.5562 16.9999 20.9344 15.6268 20.9344 13.9268V4.38069C21 4.24992 21 4.11916 21 3.98839ZM10.6313 8.43454L20.5406 2.74608C20.0156 1.83069 19.0312 1.30762 17.9156 1.30762H3.08437C2.03437 1.30762 1.11563 1.83069 0.525 2.61531L10.6313 8.43454Z" fill="#5BC3C1"/>
<path d="M21 2.74615L12.0094 7.91154L10.6969 8.69615L9.38438 7.91154L0.065625 2.55C0 2.74615 0 2.87692 0 3.07308V12.5538C0 14.3192 1.37812 15.6923 3.08437 15.6923H17.85C19.5562 15.6923 20.9344 14.3192 20.9344 12.6192V3.07308C21 2.94231 21 2.81154 21 2.74615ZM10.6313 7.12692L20.5406 1.43846C20.0156 0.588462 19.0312 0 17.9156 0H3.08437C2.03437 0 1.11563 0.523077 0.525 1.30769L10.6313 7.12692Z" fill="#32E1CC"/>
<path d="M3.08438 14.3845C2.1 14.3845 1.3125 13.5999 1.3125 12.6192V3.073C1.3125 2.09223 2.1 1.30762 3.08438 1.30762H17.85C18.9 1.30762 19.6875 2.09223 19.6875 3.073V12.5538C19.6875 13.5345 18.9 14.3192 17.9156 14.3192H3.08438V14.3845Z" fill="#489995"/>
<path d="M21.0008 2.74608L12.0102 7.91146L11.2883 8.36916C10.9602 8.56531 10.5008 8.56531 10.1727 8.36916L9.45078 7.91146L0.0664062 2.54992C0.132031 2.09223 0.328906 1.69992 0.525781 1.30762L10.632 7.12685L20.5414 1.43839C20.7383 1.83069 20.9352 2.28839 21.0008 2.74608Z" fill="#32E1CC"/>
</g>
<defs>
<clipPath id="clip0">
<rect width="21" height="17" fill="white"/>
</clipPath>
</defs>
</svg>
